<svg width="147" height="19" viewBox="0 0 147 19" fill="none" xmlns="http://www.w3.org/2000/svg">
<path d="M12.1526 7.528C12.1526 8.42267 11.9472 9.244 11.5366 9.992C11.1259 10.7253 10.4952 11.3193 9.64455 11.774C8.79389 12.2287 7.73789 12.456 6.47656 12.456H4.14455V18H0.382555V2.556H6.47656C7.70855 2.556 8.74989 2.76867 9.60056 3.194C10.4512 3.61933 11.0892 4.206 11.5146 4.954C11.9399 5.702 12.1526 6.56 12.1526 7.528ZM6.19055 9.464C6.90922 9.464 7.44456 9.29533 7.79656 8.958C8.14855 8.62067 8.32455 8.144 8.32455 7.528C8.32455 6.912 8.14855 6.43533 7.79656 6.098C7.44456 5.76067 6.90922 5.592 6.19055 5.592H4.14455V9.464H6.19055ZM25.6831 11.664C25.6831 12.016 25.6611 12.3827 25.6171 12.764H17.1031C17.1617 13.5267 17.4037 14.1133 17.8291 14.524C18.2691 14.92 18.8044 15.118 19.4351 15.118C20.3737 15.118 21.0264 14.722 21.3931 13.93H25.3971C25.1917 14.7367 24.8177 15.4627 24.2751 16.108C23.7471 16.7533 23.0797 17.2593 22.2731 17.626C21.4664 17.9927 20.5644 18.176 19.5671 18.176C18.3644 18.176 17.2937 17.9193 16.3551 17.406C15.4164 16.8927 14.6831 16.1593 14.1551 15.206C13.6271 14.2527 13.3631 13.138 13.3631 11.862C13.3631 10.586 13.6197 9.47133 14.1331 8.518C14.6611 7.56467 15.3944 6.83133 16.3331 6.318C17.2717 5.80467 18.3497 5.548 19.5671 5.548C20.7551 5.548 21.8111 5.79733 22.7351 6.296C23.6591 6.79467 24.3777 7.506 24.8911 8.43C25.4191 9.354 25.6831 10.432 25.6831 11.664ZM21.8331 10.674C21.8331 10.0287 21.6131 9.51533 21.1731 9.134C20.7331 8.75267 20.1831 8.562 19.5231 8.562C18.8924 8.562 18.3571 8.74533 17.9171 9.112C17.4917 9.47867 17.2277 9.99933 17.1251 10.674H21.8331ZM31.4297 7.77C31.8697 7.09533 32.4197 6.56733 33.0797 6.186C33.7397 5.79 34.473 5.592 35.2797 5.592V9.574H34.2457C33.307 9.574 32.603 9.77933 32.1337 10.19C31.6644 10.586 31.4297 11.29 31.4297 12.302V18H27.6677V5.724H31.4297V7.77ZM43.2379 8.848H41.2139V18H37.4519V8.848H36.0879V5.724H37.4519V5.372C37.4519 3.86133 37.8845 2.71733 38.7499 1.94C39.6152 1.148 40.8839 0.751999 42.5559 0.751999C42.8345 0.751999 43.0399 0.759332 43.1719 0.773999V3.964C42.4532 3.92 41.9472 4.02267 41.6539 4.272C41.3605 4.52133 41.2139 4.96867 41.2139 5.614V5.724H43.2379V8.848ZM50.5936 18.176C49.3909 18.176 48.3056 17.9193 47.3376 17.406C46.3843 16.8927 45.6289 16.1593 45.0716 15.206C44.5289 14.2527 44.2576 13.138 44.2576 11.862C44.2576 10.6007 44.5363 9.49333 45.0936 8.54C45.6509 7.572 46.4136 6.83133 47.3816 6.318C48.3496 5.80467 49.4349 5.548 50.6376 5.548C51.8403 5.548 52.9256 5.80467 53.8936 6.318C54.8616 6.83133 55.6243 7.572 56.1816 8.54C56.7389 9.49333 57.0176 10.6007 57.0176 11.862C57.0176 13.1233 56.7316 14.238 56.1596 15.206C55.6023 16.1593 54.8323 16.8927 53.8496 17.406C52.8816 17.9193 51.7963 18.176 50.5936 18.176ZM50.5936 14.92C51.3123 14.92 51.9209 14.656 52.4196 14.128C52.9329 13.6 53.1896 12.8447 53.1896 11.862C53.1896 10.8793 52.9403 10.124 52.4416 9.596C51.9576 9.068 51.3563 8.804 50.6376 8.804C49.9043 8.804 49.2956 9.068 48.8116 9.596C48.3276 10.1093 48.0856 10.8647 48.0856 11.862C48.0856 12.8447 48.3203 13.6 48.7896 14.128C49.2736 14.656 49.8749 14.92 50.5936 14.92ZM62.7754 7.77C63.2154 7.09533 63.7654 6.56733 64.4254 6.186C65.0854 5.79 65.8187 5.592 66.6254 5.592V9.574H65.5914C64.6527 9.574 63.9487 9.77933 63.4794 10.19C63.0101 10.586 62.7754 11.29 62.7754 12.302V18H59.0134V5.724H62.7754V7.77ZM84.0876 5.592C85.6129 5.592 86.8229 6.054 87.7176 6.978C88.6269 7.902 89.0816 9.18533 89.0816 10.828V18H85.3416V11.334C85.3416 10.542 85.1289 9.93333 84.7036 9.508C84.2929 9.068 83.7209 8.848 82.9876 8.848C82.2542 8.848 81.6749 9.068 81.2496 9.508C80.8389 9.93333 80.6336 10.542 80.6336 11.334V18H76.8936V11.334C76.8936 10.542 76.6809 9.93333 76.2556 9.508C75.8449 9.068 75.2729 8.848 74.5396 8.848C73.8062 8.848 73.2269 9.068 72.8016 9.508C72.3909 9.93333 72.1856 10.542 72.1856 11.334V18H68.4236V5.724H72.1856V7.264C72.5669 6.75067 73.0656 6.34733 73.6816 6.054C74.2976 5.746 74.9942 5.592 75.7716 5.592C76.6956 5.592 77.5169 5.79 78.2356 6.186C78.9689 6.582 79.5409 7.14667 79.9516 7.88C80.3769 7.20533 80.9562 6.65533 81.6896 6.23C82.4229 5.80467 83.2222 5.592 84.0876 5.592ZM90.9646 11.84C90.9646 10.5787 91.1993 9.47133 91.6686 8.518C92.1526 7.56467 92.8053 6.83133 93.6266 6.318C94.448 5.80467 95.3646 5.548 96.3766 5.548C97.242 5.548 97.9973 5.724 98.6426 6.076C99.3026 6.428 99.8086 6.89 100.161 7.462V5.724H103.923V18H100.161V16.262C99.794 16.834 99.2806 17.296 98.6206 17.648C97.9753 18 97.22 18.176 96.3546 18.176C95.3573 18.176 94.448 17.9193 93.6266 17.406C92.8053 16.878 92.1526 16.1373 91.6686 15.184C91.1993 14.216 90.9646 13.1013 90.9646 11.84ZM100.161 11.862C100.161 10.9233 99.8966 10.1827 99.3686 9.64C98.8553 9.09733 98.2246 8.826 97.4766 8.826C96.7286 8.826 96.0906 9.09733 95.5626 9.64C95.0493 10.168 94.7926 10.9013 94.7926 11.84C94.7926 12.7787 95.0493 13.5267 95.5626 14.084C96.0906 14.6267 96.7286 14.898 97.4766 14.898C98.2246 14.898 98.8553 14.6267 99.3686 14.084C99.8966 13.5413 100.161 12.8007 100.161 11.862ZM114.124 5.592C115.562 5.592 116.706 6.06133 117.556 7C118.422 7.924 118.854 9.2 118.854 10.828V18H115.114V11.334C115.114 10.5127 114.902 9.87467 114.476 9.42C114.051 8.96533 113.479 8.738 112.76 8.738C112.042 8.738 111.47 8.96533 111.044 9.42C110.619 9.87467 110.406 10.5127 110.406 11.334V18H106.644V5.724H110.406V7.352C110.788 6.80933 111.301 6.384 111.946 6.076C112.592 5.75333 113.318 5.592 114.124 5.592ZM120.72 11.862C120.72 10.586 120.977 9.47133 121.49 8.518C122.018 7.56467 122.744 6.83133 123.668 6.318C124.607 5.80467 125.678 5.548 126.88 5.548C128.42 5.548 129.704 5.95133 130.73 6.758C131.772 7.56467 132.454 8.70133 132.776 10.168H128.772C128.435 9.22933 127.782 8.76 126.814 8.76C126.125 8.76 125.575 9.03133 125.164 9.574C124.754 10.102 124.548 10.8647 124.548 11.862C124.548 12.8593 124.754 13.6293 125.164 14.172C125.575 14.7 126.125 14.964 126.814 14.964C127.782 14.964 128.435 14.4947 128.772 13.556H132.776C132.454 14.9933 131.772 16.1227 130.73 16.944C129.689 17.7653 128.406 18.176 126.88 18.176C125.678 18.176 124.607 17.9193 123.668 17.406C122.744 16.8927 122.018 16.1593 121.49 15.206C120.977 14.2527 120.72 13.138 120.72 11.862ZM146.361 11.664C146.361 12.016 146.339 12.3827 146.295 12.764H137.781C137.839 13.5267 138.081 14.1133 138.507 14.524C138.947 14.92 139.482 15.118 140.113 15.118C141.051 15.118 141.704 14.722 142.071 13.93H146.075C145.869 14.7367 145.495 15.4627 144.953 16.108C144.425 16.7533 143.757 17.2593 142.951 17.626C142.144 17.9927 141.242 18.176 140.245 18.176C139.042 18.176 137.971 17.9193 137.033 17.406C136.094 16.8927 135.361 16.1593 134.833 15.206C134.305 14.2527 134.041 13.138 134.041 11.862C134.041 10.586 134.297 9.47133 134.811 8.518C135.339 7.56467 136.072 6.83133 137.011 6.318C137.949 5.80467 139.027 5.548 140.245 5.548C141.433 5.548 142.489 5.79733 143.413 6.296C144.337 6.79467 145.055 7.506 145.569 8.43C146.097 9.354 146.361 10.432 146.361 11.664ZM142.511 10.674C142.511 10.0287 142.291 9.51533 141.851 9.134C141.411 8.75267 140.861 8.562 140.201 8.562C139.57 8.562 139.035 8.74533 138.595 9.112C138.169 9.47867 137.905 9.99933 137.803 10.674H142.511Z" fill="#323F73"/>
</svg>
