<svg width="126" height="25" viewBox="0 0 126 25" fill="none" xmlns="http://www.w3.org/2000/svg">
<path d="M0.056 12.736C0.056 10.5173 0.536 8.544 1.496 6.816C2.456 5.06667 3.78933 3.712 5.496 2.752C7.224 1.77067 9.176 1.28 11.352 1.28C14.0187 1.28 16.3013 1.984 18.2 3.392C20.0987 4.8 21.368 6.72 22.008 9.152H15.992C15.544 8.21333 14.904 7.49867 14.072 7.008C13.2613 6.51733 12.3333 6.272 11.288 6.272C9.60267 6.272 8.23733 6.85867 7.192 8.032C6.14667 9.20533 5.624 10.7733 5.624 12.736C5.624 14.6987 6.14667 16.2667 7.192 17.44C8.23733 18.6133 9.60267 19.2 11.288 19.2C12.3333 19.2 13.2613 18.9547 14.072 18.464C14.904 17.9733 15.544 17.2587 15.992 16.32H22.008C21.368 18.752 20.0987 20.672 18.2 22.08C16.3013 23.4667 14.0187 24.16 11.352 24.16C9.176 24.16 7.224 23.68 5.496 22.72C3.78933 21.7387 2.456 20.384 1.496 18.656C0.536 16.928 0.056 14.9547 0.056 12.736ZM36.335 5.952C38.383 5.952 40.0257 6.63467 41.263 8C42.5003 9.344 43.119 11.2 43.119 13.568V24H37.679V14.304C37.679 13.1093 37.3697 12.1813 36.751 11.52C36.1323 10.8587 35.3003 10.528 34.255 10.528C33.2097 10.528 32.3777 10.8587 31.759 11.52C31.1403 12.1813 30.831 13.1093 30.831 14.304V24H25.359V0.32H30.831V8.544C31.3857 7.75467 32.143 7.12533 33.103 6.656C34.063 6.18667 35.1403 5.952 36.335 5.952ZM63.7535 14.784C63.7535 15.296 63.7215 15.8293 63.6575 16.384H51.2735C51.3588 17.4933 51.7108 18.3467 52.3295 18.944C52.9695 19.52 53.7482 19.808 54.6655 19.808C56.0308 19.808 56.9802 19.232 57.5135 18.08H63.3375C63.0388 19.2533 62.4948 20.3093 61.7055 21.248C60.9375 22.1867 59.9668 22.9227 58.7935 23.456C57.6202 23.9893 56.3082 24.256 54.8575 24.256C53.1082 24.256 51.5508 23.8827 50.1855 23.136C48.8202 22.3893 47.7535 21.3227 46.9855 19.936C46.2175 18.5493 45.8335 16.928 45.8335 15.072C45.8335 13.216 46.2068 11.5947 46.9535 10.208C47.7215 8.82133 48.7882 7.75467 50.1535 7.008C51.5188 6.26133 53.0868 5.888 54.8575 5.888C56.5855 5.888 58.1215 6.25067 59.4655 6.976C60.8095 7.70133 61.8548 8.736 62.6015 10.08C63.3695 11.424 63.7535 12.992 63.7535 14.784ZM58.1535 13.344C58.1535 12.4053 57.8335 11.6587 57.1935 11.104C56.5535 10.5493 55.7535 10.272 54.7935 10.272C53.8762 10.272 53.0975 10.5387 52.4575 11.072C51.8388 11.6053 51.4548 12.3627 51.3055 13.344H58.1535ZM83.4722 14.784C83.4722 15.296 83.4403 15.8293 83.3763 16.384H70.9923C71.0776 17.4933 71.4296 18.3467 72.0483 18.944C72.6883 19.52 73.4669 19.808 74.3843 19.808C75.7496 19.808 76.6989 19.232 77.2323 18.08H83.0563C82.7576 19.2533 82.2136 20.3093 81.4243 21.248C80.6563 22.1867 79.6856 22.9227 78.5123 23.456C77.3389 23.9893 76.0269 24.256 74.5763 24.256C72.8269 24.256 71.2696 23.8827 69.9043 23.136C68.5389 22.3893 67.4723 21.3227 66.7043 19.936C65.9363 18.5493 65.5523 16.928 65.5523 15.072C65.5523 13.216 65.9256 11.5947 66.6723 10.208C67.4403 8.82133 68.5069 7.75467 69.8723 7.008C71.2376 6.26133 72.8056 5.888 74.5763 5.888C76.3043 5.888 77.8403 6.25067 79.1843 6.976C80.5283 7.70133 81.5736 8.736 82.3203 10.08C83.0883 11.424 83.4722 12.992 83.4722 14.784ZM77.8723 13.344C77.8723 12.4053 77.5523 11.6587 76.9123 11.104C76.2723 10.5493 75.4723 10.272 74.5123 10.272C73.5949 10.272 72.8163 10.5387 72.1763 11.072C71.5576 11.6053 71.1736 12.3627 71.0243 13.344H77.8723ZM91.831 9.12C92.471 8.13867 93.271 7.37067 94.231 6.816C95.191 6.24 96.2577 5.952 97.431 5.952V11.744H95.927C94.5617 11.744 93.5377 12.0427 92.855 12.64C92.1723 13.216 91.831 14.24 91.831 15.712V24H86.359V6.144H91.831V9.12ZM107.311 24.256C105.753 24.256 104.367 23.9893 103.151 23.456C101.935 22.9227 100.975 22.1973 100.271 21.28C99.5665 20.3413 99.1718 19.296 99.0865 18.144H104.495C104.559 18.7627 104.847 19.264 105.359 19.648C105.871 20.032 106.5 20.224 107.247 20.224C107.929 20.224 108.452 20.096 108.815 19.84C109.199 19.5627 109.391 19.2107 109.391 18.784C109.391 18.272 109.124 17.8987 108.591 17.664C108.057 17.408 107.193 17.1307 105.999 16.832C104.719 16.5333 103.652 16.224 102.799 15.904C101.945 15.5627 101.209 15.04 100.591 14.336C99.9718 13.6107 99.6625 12.64 99.6625 11.424C99.6625 10.4 99.9398 9.472 100.495 8.64C101.071 7.78667 101.903 7.11467 102.991 6.624C104.1 6.13333 105.412 5.888 106.927 5.888C109.167 5.888 110.927 6.44267 112.207 7.552C113.508 8.66133 114.255 10.1333 114.447 11.968H109.391C109.305 11.3493 109.028 10.8587 108.559 10.496C108.111 10.1333 107.513 9.952 106.767 9.952C106.127 9.952 105.636 10.08 105.295 10.336C104.953 10.5707 104.783 10.9013 104.783 11.328C104.783 11.84 105.049 12.224 105.583 12.48C106.137 12.736 106.991 12.992 108.143 13.248C109.465 13.5893 110.543 13.9307 111.375 14.272C112.207 14.592 112.932 15.1253 113.551 15.872C114.191 16.5973 114.521 17.5787 114.543 18.816C114.543 19.8613 114.244 20.8 113.647 21.632C113.071 22.4427 112.228 23.0827 111.119 23.552C110.031 24.0213 108.761 24.256 107.311 24.256ZM125.09 0.735998L124.45 16.064H119.81L119.17 0.735998H125.09ZM122.21 24.256C121.25 24.256 120.461 23.9787 119.842 23.424C119.245 22.848 118.946 22.144 118.946 21.312C118.946 20.4587 119.245 19.744 119.842 19.168C120.461 18.592 121.25 18.304 122.21 18.304C123.149 18.304 123.917 18.592 124.514 19.168C125.133 19.744 125.442 20.4587 125.442 21.312C125.442 22.144 125.133 22.848 124.514 23.424C123.917 23.9787 123.149 24.256 122.21 24.256Z" fill="#323F73"/>
</svg>
