<svg width="60" height="60" viewBox="0 0 60 60" fill="none" xmlns="http://www.w3.org/2000/svg">
<g id="Facebook">
<rect id="Rectangle" opacity="0.0953776" x="0.5" y="0.5" width="59" height="59" stroke="#979797"/>
<path id="Path" d="M38.896 20H21.103C20.4938 20.0004 19.9999 20.4945 20 21.104V38.897C20.0004 39.5062 20.4945 40.0001 21.104 40H30.6836V32.2656H28.0859V29.2383H30.6836V27.0104C30.6836 24.4268 32.2609 23.0205 34.5656 23.0205C35.6694 23.0205 36.618 23.1028 36.8945 23.1395V25.8398H35.3053C34.0514 25.8398 33.8086 26.4357 33.8086 27.3102V29.2383H36.8066L36.416 32.2656H33.8086V40H38.896C39.5056 40.0001 39.9999 39.5061 40 38.8965C40 38.8964 40 38.8962 40 38.896V21.103C39.9998 20.4938 39.5055 19.9999 38.896 20Z" fill="#323F73"/>
</g>
</svg>
