<svg width="60" height="60" viewBox="0 0 60 60" fill="none" xmlns="http://www.w3.org/2000/svg">
<g id="Linked in">
<rect id="Linked in_2" opacity="0.0953776" x="0.5" y="0.5" width="59" height="59" stroke="#979797"/>
<path id="Shape" fill-rule="evenodd" clip-rule="evenodd" d="M21.4424 20H38.5576C39.3542 20 40 20.6458 40 21.4424V38.5576C40 39.3542 39.3542 40 38.5576 40H21.4424C20.6458 40 20 39.3542 20 38.5576V21.4424C20 20.6458 20.6458 20 21.4424 20ZM24.6587 35.1172H27.0941V27.7901H24.6587V35.1172ZM25.8765 26.7896H25.8606C25.0433 26.7896 24.5148 26.227 24.5148 25.5238C24.5148 24.8048 25.0595 24.2578 25.8926 24.2578C26.7258 24.2578 27.2385 24.8048 27.2543 25.5238C27.2543 26.227 26.7258 26.7896 25.8765 26.7896ZM33.4407 35.1172H35.8759V30.9158C35.8759 28.6653 34.6744 27.6181 33.0721 27.6181C31.7799 27.6181 31.2009 28.3282 30.8772 28.8275V27.7901H28.4419C28.4738 28.4775 28.4419 35.1172 28.4419 35.1172H30.8772V31.0254C30.8772 30.8064 30.8929 30.5876 30.9573 30.4311C31.1334 29.9936 31.5341 29.5404 32.2069 29.5404C33.0881 29.5404 33.4407 30.2122 33.4407 31.1974V35.1172Z" fill="#323F73"/>
</g>
</svg>
