<svg width="60" height="60" viewBox="0 0 60 60" fill="none" xmlns="http://www.w3.org/2000/svg">
<g id="Twitter">
<rect id="Rectangle Copy 21" opacity="0.0953776" x="0.5" y="0.5" width="59" height="59" stroke="#979797"/>
<path id="Path" d="M38.5 24.6574C37.8492 24.9385 37.1558 25.1248 36.4328 25.2152C37.1766 24.778 37.7442 24.0909 38.0111 23.2628C37.3177 23.6698 36.552 23.9574 35.7361 24.1178C35.0777 23.4275 34.1392 23 33.1155 23C31.1292 23 29.5302 24.5874 29.5302 26.5334C29.5302 26.8134 29.5542 27.0826 29.6133 27.3389C26.6306 27.1957 23.9914 25.7882 22.2184 23.644C21.9089 24.1728 21.7273 24.778 21.7273 25.4295C21.7273 26.6529 22.3672 27.7374 23.3209 28.3652C22.7445 28.3545 22.1791 28.1897 21.7 27.9302C21.7 27.9409 21.7 27.9549 21.7 27.9689C21.7 29.6855 22.9436 31.1114 24.5744 31.4398C24.2823 31.5185 23.9641 31.5562 23.6337 31.5562C23.4041 31.5562 23.1722 31.5432 22.9545 31.4958C23.4194 32.8948 24.7384 33.9232 26.3069 33.9566C25.0863 34.8968 23.5364 35.4632 21.8586 35.4632C21.5644 35.4632 21.2822 35.4503 21 35.4148C22.5892 36.4238 24.4727 37 26.5037 37C33.1056 37 36.715 31.6154 36.715 26.948C36.715 26.7918 36.7095 26.6411 36.7019 26.4914C37.4139 25.9938 38.0122 25.3725 38.5 24.6574Z" fill="#323F73"/>
</g>
</svg>
