<svg width="77" height="28" viewBox="0 0 77 28" fill="none" xmlns="http://www.w3.org/2000/svg">
<g clip-path="url(#clip0_0_242)">
<rect width="77" height="28" rx="4" fill="#FFD9CC"/>
<path d="M37.868 16.14H34.22L33.548 18H32.396L35.42 9.684H36.68L39.692 18H38.54L37.868 16.14ZM37.556 15.252L36.044 11.028L34.532 15.252H37.556ZM42.1019 9.12V18H41.0099V9.12H42.1019ZM44.5271 10.356C44.3191 10.356 44.1431 10.284 43.9991 10.14C43.8551 9.996 43.7831 9.82 43.7831 9.612C43.7831 9.404 43.8551 9.228 43.9991 9.084C44.1431 8.94 44.3191 8.868 44.5271 8.868C44.7271 8.868 44.8951 8.94 45.0311 9.084C45.1751 9.228 45.2471 9.404 45.2471 9.612C45.2471 9.82 45.1751 9.996 45.0311 10.14C44.8951 10.284 44.7271 10.356 44.5271 10.356ZM45.0551 11.424V18H43.9631V11.424H45.0551ZM49.6282 11.316C50.1962 11.316 50.6922 11.44 51.1162 11.688C51.5482 11.936 51.8682 12.248 52.0762 12.624V11.424H53.1802V18.144C53.1802 18.744 53.0522 19.276 52.7962 19.74C52.5402 20.212 52.1722 20.58 51.6922 20.844C51.2202 21.108 50.6682 21.24 50.0362 21.24C49.1722 21.24 48.4522 21.036 47.8762 20.628C47.3002 20.22 46.9602 19.664 46.8562 18.96H47.9362C48.0562 19.36 48.3042 19.68 48.6802 19.92C49.0562 20.168 49.5082 20.292 50.0362 20.292C50.6362 20.292 51.1242 20.104 51.5002 19.728C51.8842 19.352 52.0762 18.824 52.0762 18.144V16.764C51.8602 17.148 51.5402 17.468 51.1162 17.724C50.6922 17.98 50.1962 18.108 49.6282 18.108C49.0442 18.108 48.5122 17.964 48.0322 17.676C47.5602 17.388 47.1882 16.984 46.9162 16.464C46.6442 15.944 46.5082 15.352 46.5082 14.688C46.5082 14.016 46.6442 13.428 46.9162 12.924C47.1882 12.412 47.5602 12.016 48.0322 11.736C48.5122 11.456 49.0442 11.316 49.6282 11.316ZM52.0762 14.7C52.0762 14.204 51.9762 13.772 51.7762 13.404C51.5762 13.036 51.3042 12.756 50.9602 12.564C50.6242 12.364 50.2522 12.264 49.8442 12.264C49.4362 12.264 49.0642 12.36 48.7282 12.552C48.3922 12.744 48.1242 13.024 47.9242 13.392C47.7242 13.76 47.6242 14.192 47.6242 14.688C47.6242 15.192 47.7242 15.632 47.9242 16.008C48.1242 16.376 48.3922 16.66 48.7282 16.86C49.0642 17.052 49.4362 17.148 49.8442 17.148C50.2522 17.148 50.6242 17.052 50.9602 16.86C51.3042 16.66 51.5762 16.376 51.7762 16.008C51.9762 15.632 52.0762 15.196 52.0762 14.7ZM58.2296 11.304C59.0296 11.304 59.6776 11.548 60.1736 12.036C60.6696 12.516 60.9176 13.212 60.9176 14.124V18H59.8376V14.28C59.8376 13.624 59.6736 13.124 59.3456 12.78C59.0176 12.428 58.5696 12.252 58.0016 12.252C57.4256 12.252 56.9656 12.432 56.6216 12.792C56.2856 13.152 56.1176 13.676 56.1176 14.364V18H55.0256V11.424H56.1176V12.36C56.3336 12.024 56.6256 11.764 56.9936 11.58C57.3696 11.396 57.7816 11.304 58.2296 11.304Z" fill="#E95829"/>
<path d="M21.3432 13.589V10.3014H16.2473V8H15.0966V10.3014H10.0007V13.589H15.0966V14.411H12.6309V17.6986H15.0966V20H16.2473V17.6986H18.713V14.411H16.2473V13.589H21.3432Z" fill="#E95829"/>
</g>
<defs>
<clipPath id="clip0_0_242">
<rect width="77" height="28" fill="white"/>
</clipPath>
</defs>
</svg>
