<svg width="87" height="28" viewBox="0 0 87 28" fill="none" xmlns="http://www.w3.org/2000/svg">
<g clip-path="url(#clip0_0_222)">
<rect width="87" height="28" rx="4" fill="#CCFFFC"/>
<path d="M37.328 18L35.336 14.58H34.016V18H32.924V9.636H35.624C36.256 9.636 36.788 9.744 37.22 9.96C37.66 10.176 37.988 10.468 38.204 10.836C38.42 11.204 38.528 11.624 38.528 12.096C38.528 12.672 38.36 13.18 38.024 13.62C37.696 14.06 37.2 14.352 36.536 14.496L38.636 18H37.328ZM34.016 13.704H35.624C36.216 13.704 36.66 13.56 36.956 13.272C37.252 12.976 37.4 12.584 37.4 12.096C37.4 11.6 37.252 11.216 36.956 10.944C36.668 10.672 36.224 10.536 35.624 10.536H34.016V13.704ZM46.2248 14.46C46.2248 14.668 46.2128 14.888 46.1888 15.12H40.9328C40.9728 15.768 41.1928 16.276 41.5928 16.644C42.0008 17.004 42.4928 17.184 43.0688 17.184C43.5408 17.184 43.9328 17.076 44.2448 16.86C44.5648 16.636 44.7888 16.34 44.9168 15.972H46.0928C45.9168 16.604 45.5648 17.12 45.0368 17.52C44.5088 17.912 43.8528 18.108 43.0688 18.108C42.4448 18.108 41.8848 17.968 41.3888 17.688C40.9008 17.408 40.5168 17.012 40.2368 16.5C39.9568 15.98 39.8168 15.38 39.8168 14.7C39.8168 14.02 39.9528 13.424 40.2248 12.912C40.4968 12.4 40.8768 12.008 41.3648 11.736C41.8608 11.456 42.4288 11.316 43.0688 11.316C43.6928 11.316 44.2448 11.452 44.7248 11.724C45.2048 11.996 45.5728 12.372 45.8288 12.852C46.0928 13.324 46.2248 13.86 46.2248 14.46ZM45.0968 14.232C45.0968 13.816 45.0048 13.46 44.8208 13.164C44.6368 12.86 44.3848 12.632 44.0648 12.48C43.7528 12.32 43.4048 12.24 43.0208 12.24C42.4688 12.24 41.9968 12.416 41.6048 12.768C41.2208 13.12 41.0008 13.608 40.9448 14.232H45.0968ZM55.5742 11.304C56.0862 11.304 56.5422 11.412 56.9422 11.628C57.3422 11.836 57.6582 12.152 57.8902 12.576C58.1222 13 58.2382 13.516 58.2382 14.124V18H57.1582V14.28C57.1582 13.624 56.9942 13.124 56.6662 12.78C56.3462 12.428 55.9102 12.252 55.3582 12.252C54.7902 12.252 54.3382 12.436 54.0022 12.804C53.6662 13.164 53.4982 13.688 53.4982 14.376V18H52.4182V14.28C52.4182 13.624 52.2542 13.124 51.9262 12.78C51.6062 12.428 51.1702 12.252 50.6182 12.252C50.0502 12.252 49.5982 12.436 49.2622 12.804C48.9262 13.164 48.7582 13.688 48.7582 14.376V18H47.6662V11.424H48.7582V12.372C48.9742 12.028 49.2622 11.764 49.6222 11.58C49.9902 11.396 50.3942 11.304 50.8342 11.304C51.3862 11.304 51.8742 11.428 52.2982 11.676C52.7222 11.924 53.0382 12.288 53.2462 12.768C53.4302 12.304 53.7342 11.944 54.1582 11.688C54.5822 11.432 55.0542 11.304 55.5742 11.304ZM62.8975 18.108C62.2815 18.108 61.7215 17.968 61.2175 17.688C60.7215 17.408 60.3295 17.012 60.0415 16.5C59.7615 15.98 59.6215 15.38 59.6215 14.7C59.6215 14.028 59.7655 13.436 60.0535 12.924C60.3495 12.404 60.7495 12.008 61.2535 11.736C61.7575 11.456 62.3215 11.316 62.9455 11.316C63.5695 11.316 64.1335 11.456 64.6375 11.736C65.1415 12.008 65.5375 12.4 65.8255 12.912C66.1215 13.424 66.2695 14.02 66.2695 14.7C66.2695 15.38 66.1175 15.98 65.8135 16.5C65.5175 17.012 65.1135 17.408 64.6015 17.688C64.0895 17.968 63.5215 18.108 62.8975 18.108ZM62.8975 17.148C63.2895 17.148 63.6575 17.056 64.0015 16.872C64.3455 16.688 64.6215 16.412 64.8295 16.044C65.0455 15.676 65.1535 15.228 65.1535 14.7C65.1535 14.172 65.0495 13.724 64.8415 13.356C64.6335 12.988 64.3615 12.716 64.0255 12.54C63.6895 12.356 63.3255 12.264 62.9335 12.264C62.5335 12.264 62.1655 12.356 61.8295 12.54C61.5015 12.716 61.2375 12.988 61.0375 13.356C60.8375 13.724 60.7375 14.172 60.7375 14.7C60.7375 15.236 60.8335 15.688 61.0255 16.056C61.2255 16.424 61.4895 16.7 61.8175 16.884C62.1455 17.06 62.5055 17.148 62.8975 17.148ZM69.0373 12.324V16.2C69.0373 16.52 69.1053 16.748 69.2413 16.884C69.3773 17.012 69.6133 17.076 69.9492 17.076H70.7533V18H69.7693C69.1613 18 68.7053 17.86 68.4013 17.58C68.0973 17.3 67.9453 16.84 67.9453 16.2V12.324H67.0933V11.424H67.9453V9.768H69.0373V11.424H70.7533V12.324H69.0373ZM78.0763 14.46C78.0763 14.668 78.0643 14.888 78.0403 15.12H72.7843C72.8243 15.768 73.0443 16.276 73.4443 16.644C73.8523 17.004 74.3443 17.184 74.9203 17.184C75.3923 17.184 75.7843 17.076 76.0963 16.86C76.4163 16.636 76.6403 16.34 76.7683 15.972H77.9443C77.7683 16.604 77.4163 17.12 76.8883 17.52C76.3603 17.912 75.7043 18.108 74.9203 18.108C74.2963 18.108 73.7363 17.968 73.2403 17.688C72.7523 17.408 72.3683 17.012 72.0883 16.5C71.8083 15.98 71.6683 15.38 71.6683 14.7C71.6683 14.02 71.8043 13.424 72.0763 12.912C72.3483 12.4 72.7283 12.008 73.2163 11.736C73.7123 11.456 74.2803 11.316 74.9203 11.316C75.5443 11.316 76.0963 11.452 76.5763 11.724C77.0563 11.996 77.4243 12.372 77.6803 12.852C77.9443 13.324 78.0763 13.86 78.0763 14.46ZM76.9483 14.232C76.9483 13.816 76.8563 13.46 76.6723 13.164C76.4883 12.86 76.2363 12.632 75.9163 12.48C75.6043 12.32 75.2563 12.24 74.8723 12.24C74.3203 12.24 73.8483 12.416 73.4563 12.768C73.0723 13.12 72.8523 13.608 72.7963 14.232H76.9483Z" fill="#23A9A1"/>
<path d="M20.3717 14.1245C20.2341 13.989 20.0129 13.9898 19.8764 14.1264L19.1875 14.8153L18.6564 14.2842L21.8964 11.0617C22.0342 10.9246 22.0346 10.7014 21.897 10.5639L20.9152 9.58201L21.1847 9.31245C21.322 9.17518 21.322 8.95257 21.1847 8.81527C21.0474 8.678 20.8248 8.678 20.6875 8.81527L20.418 9.08483L19.4361 8.10296C19.2986 7.96545 19.0754 7.96576 18.9382 8.10361L15.7158 11.3436L15.1847 10.8125L15.8736 10.1236C16.0101 9.98703 16.011 9.7659 15.8755 9.62829L14.3755 8.10486C14.238 7.96524 14.0126 7.96498 13.8749 8.10448L11.9999 10.0029C11.864 10.1405 11.8647 10.3618 12.0014 10.4985L13.5014 11.9985C13.6387 12.1358 13.8613 12.1358 13.9986 11.9985L14.6875 11.3097L15.2199 11.8421L14.6257 12.4396C14.4891 12.5769 14.4894 12.799 14.6264 12.9361L15.5966 13.9062L15.0866 14.4162C14.133 13.6802 12.796 13.656 11.7836 14.3942C11.6094 14.5213 11.5896 14.7743 11.7422 14.9269L15.0731 18.2578C15.2254 18.4102 15.4785 18.391 15.6058 18.2164C16.344 17.2041 16.3198 15.8671 15.5837 14.9135L16.0937 14.4035L17.0639 15.3736C17.2005 15.5102 17.4226 15.5114 17.5604 15.3743L18.1579 14.7801L18.6903 15.3125L18.0014 16.0014C17.8641 16.1387 17.8641 16.3613 18.0014 16.4986L19.5014 17.9986C19.6379 18.1351 19.8593 18.1362 19.9971 18.0001L21.8955 16.1251C22.035 15.9874 22.0347 15.762 21.8951 15.6245L20.3717 14.1245Z" fill="#23A9A1"/>
<path d="M13.375 17.7734C12.7417 17.7734 12.2266 17.2583 12.2266 16.625C12.2266 16.4308 12.0692 16.2734 11.875 16.2734C11.6808 16.2734 11.5234 16.4308 11.5234 16.625C11.5234 17.646 12.354 18.4766 13.375 18.4766C13.5692 18.4766 13.7266 18.3192 13.7266 18.125C13.7266 17.9308 13.5692 17.7734 13.375 17.7734Z" fill="#23A9A1"/>
<path d="M13.375 19.2969C11.9017 19.2969 10.7031 18.0983 10.7031 16.625C10.7031 16.4308 10.5457 16.2734 10.3516 16.2734C10.1574 16.2734 10 16.4308 10 16.625C10 18.478 11.5224 20 13.375 20C13.5692 20 13.7266 19.8426 13.7266 19.6484C13.7266 19.4543 13.5692 19.2969 13.375 19.2969Z" fill="#23A9A1"/>
</g>
<defs>
<clipPath id="clip0_0_222">
<rect width="87" height="28" fill="white"/>
</clipPath>
</defs>
</svg>
