<svg width="83" height="28" viewBox="0 0 83 28" fill="none" xmlns="http://www.w3.org/2000/svg">
<g clip-path="url(#clip0_0_199)">
<rect width="83" height="28" rx="4" fill="#FFD9CC"/>
<path d="M33.328 18L31.336 14.58H30.016V18H28.924V9.636H31.624C32.256 9.636 32.788 9.744 33.22 9.96C33.66 10.176 33.988 10.468 34.204 10.836C34.42 11.204 34.528 11.624 34.528 12.096C34.528 12.672 34.36 13.18 34.024 13.62C33.696 14.06 33.2 14.352 32.536 14.496L34.636 18H33.328ZM30.016 13.704H31.624C32.216 13.704 32.66 13.56 32.956 13.272C33.252 12.976 33.4 12.584 33.4 12.096C33.4 11.6 33.252 11.216 32.956 10.944C32.668 10.672 32.224 10.536 31.624 10.536H30.016V13.704ZM42.2248 14.46C42.2248 14.668 42.2128 14.888 42.1888 15.12H36.9328C36.9728 15.768 37.1928 16.276 37.5928 16.644C38.0008 17.004 38.4928 17.184 39.0688 17.184C39.5408 17.184 39.9328 17.076 40.2448 16.86C40.5648 16.636 40.7888 16.34 40.9168 15.972H42.0928C41.9168 16.604 41.5648 17.12 41.0368 17.52C40.5088 17.912 39.8528 18.108 39.0688 18.108C38.4448 18.108 37.8848 17.968 37.3888 17.688C36.9008 17.408 36.5168 17.012 36.2368 16.5C35.9568 15.98 35.8168 15.38 35.8168 14.7C35.8168 14.02 35.9528 13.424 36.2248 12.912C36.4968 12.4 36.8768 12.008 37.3648 11.736C37.8608 11.456 38.4288 11.316 39.0688 11.316C39.6928 11.316 40.2448 11.452 40.7248 11.724C41.2048 11.996 41.5728 12.372 41.8288 12.852C42.0928 13.324 42.2248 13.86 42.2248 14.46ZM41.0968 14.232C41.0968 13.816 41.0048 13.46 40.8208 13.164C40.6368 12.86 40.3848 12.632 40.0648 12.48C39.7528 12.32 39.4048 12.24 39.0208 12.24C38.4688 12.24 37.9968 12.416 37.6048 12.768C37.2208 13.12 37.0008 13.608 36.9448 14.232H41.0968ZM46.1142 16.992L48.1542 11.424H49.3182L46.7382 18H45.4662L42.8862 11.424H44.0622L46.1142 16.992ZM50.9568 10.356C50.7488 10.356 50.5728 10.284 50.4288 10.14C50.2848 9.996 50.2128 9.82 50.2128 9.612C50.2128 9.404 50.2848 9.228 50.4288 9.084C50.5728 8.94 50.7488 8.868 50.9568 8.868C51.1568 8.868 51.3248 8.94 51.4608 9.084C51.6048 9.228 51.6768 9.404 51.6768 9.612C51.6768 9.82 51.6048 9.996 51.4608 10.14C51.3248 10.284 51.1568 10.356 50.9568 10.356ZM51.4848 11.424V18H50.3928V11.424H51.4848ZM59.3459 14.46C59.3459 14.668 59.3339 14.888 59.3099 15.12H54.0539C54.0939 15.768 54.3139 16.276 54.7139 16.644C55.1219 17.004 55.6139 17.184 56.1899 17.184C56.6619 17.184 57.0539 17.076 57.3659 16.86C57.6859 16.636 57.9099 16.34 58.0379 15.972H59.2139C59.0379 16.604 58.6859 17.12 58.1579 17.52C57.6299 17.912 56.9739 18.108 56.1899 18.108C55.5659 18.108 55.0059 17.968 54.5099 17.688C54.0219 17.408 53.6379 17.012 53.3579 16.5C53.0779 15.98 52.9379 15.38 52.9379 14.7C52.9379 14.02 53.0739 13.424 53.3459 12.912C53.6179 12.4 53.9979 12.008 54.4859 11.736C54.9819 11.456 55.5499 11.316 56.1899 11.316C56.8139 11.316 57.3659 11.452 57.8459 11.724C58.3259 11.996 58.6939 12.372 58.9499 12.852C59.2139 13.324 59.3459 13.86 59.3459 14.46ZM58.2179 14.232C58.2179 13.816 58.1259 13.46 57.9419 13.164C57.7579 12.86 57.5059 12.632 57.1859 12.48C56.8739 12.32 56.5259 12.24 56.1419 12.24C55.5899 12.24 55.1179 12.416 54.7259 12.768C54.3419 13.12 54.1219 13.608 54.0659 14.232H58.2179ZM69.5473 11.424L67.4953 18H66.3673L64.7833 12.78L63.1993 18H62.0713L60.0073 11.424H61.1233L62.6353 16.944L64.2673 11.424H65.3833L66.9793 16.956L68.4673 11.424H69.5473Z" fill="#E95829"/>
<path fill-rule="evenodd" clip-rule="evenodd" d="M17.2632 8.83001C19.338 10.2701 19.8294 13.0867 18.3601 15.1208L21.7002 18.371C21.7125 18.3823 21.7237 18.3933 21.7353 18.4054C22.1014 18.7835 22.0859 19.3813 21.7002 19.7402C21.3144 20.0994 20.7048 20.0843 20.3383 19.7061L16.9445 16.3988C15.3826 17.3032 13.4247 17.224 11.9438 16.1961C9.86873 14.756 9.37768 11.9398 10.8466 9.90571C12.3155 7.8713 15.1885 7.38989 17.2632 8.83001ZM11.6307 12.52C11.6318 14.1273 12.961 15.4295 14.6005 15.4291H14.6026C16.2429 15.4264 17.5703 14.1211 17.5675 12.5134C17.5644 10.9081 16.2358 9.60805 14.5984 9.60874C12.9586 9.60943 11.6304 10.9126 11.6307 12.52Z" fill="#E95829"/>
</g>
<defs>
<clipPath id="clip0_0_199">
<rect width="83" height="28" fill="white"/>
</clipPath>
</defs>
</svg>
